# xmcd
#
# Track frame offsets: 
#        150
#        22027
#        45767
#        66217
#        90382
#        111170
#        133800
#        158920
#        179602
#        202520
#
# Disc length: 2970 seconds
#
# Revision: 3
# Processed by: cddbd v1.5.2PL0 Copyright (c) Steve Scherf et al.
# Submitted via: ExactAudioCopy v1.0b3
#
DISCID=7b0b980a
DTITLE=張信哲 - 寬容
DYEAR=1900
DGENRE=Blues
TTITLE0=不要對他說
TTITLE1=寬容
TTITLE2=只有你
TTITLE3=不回首
TTITLE4=愛會看見
TTITLE5=過火
TTITLE6=忘情忘愛
TTITLE7=假裝有你
TTITLE8=日出之前請將悲傷終結
TTITLE9=真愛一生
EXTD=
EXTT0=
EXTT1=
EXTT2=
EXTT3=
EXTT4=
EXTT5=
EXTT6=
EXTT7=
EXTT8=
EXTT9=
PLAYORDER=
